<?xml version="1.0" encoding="UTF-8" standalone="no"?>
<svg
   height="270.21487"
   viewBox="0 0 271.4277 270.21488"
   width="271.4277"
   version="1.1"
   id="svg16"
   sodipodi:docname="pixel-cells_base.svg"
   inkscape:export-filename="/home/elio/Documents/cursos/reproducibility-with-r/static/pixel-cells_yellow.png"
   inkscape:export-xdpi="96"
   inkscape:export-ydpi="96"
   inkscape:version="1.1.2 (0a00cf5339, 2022-02-04)"
   xmlns:inkscape="http://www.inkscape.org/namespaces/inkscape"
   xmlns:sodipodi="http://sodipodi.sourceforge.net/DTD/sodipodi-0.dtd"
   xmlns="http://www.w3.org/2000/svg"
   xmlns:svg="http://www.w3.org/2000/svg">
  <defs
     id="defs20" />
  <sodipodi:namedview
     id="namedview18"
     pagecolor="#ffffff"
     bordercolor="#666666"
     borderopacity="1.0"
     inkscape:pageshadow="2"
     inkscape:pageopacity="0.0"
     inkscape:pagecheckerboard="0"
     showgrid="false"
     fit-margin-top="2"
     fit-margin-left="2"
     fit-margin-bottom="2"
     fit-margin-right="2"
     inkscape:zoom="0.5"
     inkscape:cx="54"
     inkscape:cy="291"
     inkscape:window-width="1920"
     inkscape:window-height="1019"
     inkscape:window-x="1920"
     inkscape:window-y="30"
     inkscape:window-maximized="1"
     inkscape:current-layer="g14" />
  <g
     transform="matrix(0.13333333,0,0,-0.13333333,-114.57577,329.07669)"
     id="g14">
    <path
       d="m 1440.19,1395.53 c 24.98,-144.05 51.22,-291.73 122.85,-416.921 337.42,49.401 666.24,164.271 965.32,337.231 8.67,5.02 17.61,10.35 23.38,18.85 7.21,10.62 8.33,24.43 9.06,37.49 18.39,327.81 -57,660.89 -213.7,944.08 -3.2,5.78 -6.67,11.79 -12.17,15.09 -7.23,4.35 -16.2,3 -24.39,1.45 -288.63,-54.71 -555.92,-201.24 -843.77,-260.39 -36.79,-7.55 -116.57,-12.5 -133.36,-53.55 -16.29,-39.82 25.79,-156.2 33.38,-199.97 24.46,-141.12 48.93,-282.24 73.4,-423.36"
       fill="#d7e61d"
       id="path2" />
    <g
       fill="#231f20"
       id="g12">
      <path
         d="m 2306.49,2284.84 c 4.31,4.15 -11.78,22.1 -29.46,28 -17.67,5.89 -45.59,-5.71 -66.3,-11.79 -75.95,-22.32 -163.63,-59.7 -227.27,-76.41 -216.14,-56.76 -432.58,-112.34 -648.92,-168.3 -27.53,-7.13 -31.33,-33.16 -44.06,-53.88 30.52,5.32 59.49,12.43 86.83,23.53 119.64,48.55 243,83.9 368.75,113.01 108.52,25.12 215.67,56.28 322.96,86.41 72.06,20.23 228.86,51.12 237.47,59.43 z m -13.5,-30.3 c -10.16,-3.91 -160.28,-33.37 -224.3,-49.93 -123.64,-31.98 -245.04,-71.63 -370.58,-97.48 -122.19,-25.16 -249.89,-75.34 -368.4,-114 -52.02,-13.66 -54.51,-20.63 -47.14,-58.93 7.36,-38.31 59.71,-289.94 82.67,-354.74 35.89,-101.27 142.69,-520.07 158.59,-628.901 1.76,-12.059 7.67,-15.399 20.03,-9.59 25.04,11.761 253.54,85.741 344.98,99.611 86.54,13.12 513.77,174.29 648.96,230.64 59.23,30.37 56.06,30.56 44.61,95.81 -26.67,152.05 -72.27,298.82 -120.09,444.96 -28.79,88.05 -55.87,176.33 -77.45,266.55 -13.79,57.68 -43.48,139.16 -51.85,159.15 -8.37,20 -14.74,27.99 -40.03,16.85 z m -92.2,-1142.44 c 64.08,-60.77 136.19,-133.01 156.91,-144.741 33.14,-18.781 32.04,-6.64 61.87,7.731 29.83,14.359 221.05,123.9 338.09,194.04 25.25,15.14 39.75,27.91 48.51,-12.8 3.2,-14.81 16.5,-27.79 26.36,-40.72 8.27,-10.83 6.91,-20.9 -2.24,-28.32 -10.5,-8.51 -17.8,0.82 -22.72,8.9 -10.14,16.65 -19.22,33.96 -30.75,54.61 -29.96,-16.36 -59.85,-31.71 -88.78,-48.67 -69.86,-40.99 -139.55,-82.27 -208.71,-124.411 -24.2,-14.75 -47.87,-30.918 -69.44,-49.219 -14.26,-12.09 -33.48,-10.09 -46.67,-4.238 -58.01,25.75 -86.43,70.41 -131.23,112.498 -44.79,42.09 -67.49,65.61 -91.86,54.36 -24.38,-11.24 -119.83,-43.78 -155.62,-54.36 -35.79,-10.58 -42.68,-16.71 -42.41,-50.209 6.46,-140.422 22.63,-281.672 25.99,-415.09 0.41,-4.242 14.94,-53.262 -11.17,-67.41 -22.53,-12.192 -42.26,-29.481 -63.88,-43.492 -8.23,-5.321 -19.04,-6.571 -25.49,3.082 -6.16,9.23 0.76,17.058 8.62,19.468 73.48,22.481 72.13,69.09 65.17,138.032 -12.67,125.589 -37.45,250.468 -35.79,377.468 0.26,19.971 -7.65,21.211 -26.24,17.391 -79.76,-16.398 -305.59,-89.43 -339.78,-105 -28.65,-13.051 -39.9,0.93 -43.4,26.641 -3.83,28.078 -24.48,118.599 -48.93,219.699 -38.05,157.35 -85.3,340.33 -92.56,353.31 -27.04,48.41 -70.87,85.63 -111.05,124.51 -63.86,61.79 -124.23,126.05 -176.44,198.23 -28.26,39.08 -61.32,74.7 -91.775,112.23 -22.059,27.18 -50.902,29.9 -82.121,23.7 -9.992,-1.99 -17.691,0.51 -18.824,9.91 -1.188,9.88 7.293,13.35 16.367,13.91 20.781,1.29 42.109,6.26 62.211,3.18 33.168,-5.09 49.342,-36.24 68.132,-58.59 60.27,-71.68 113.01,-149.25 176.59,-218.83 36.57,-40.03 135.53,-131.55 135.53,-131.55 0,0 -58.62,243.45 -77.22,349.79 -7.29,41.72 -8.71,46.38 2.95,61.88 11.66,15.51 31.87,46.14 36.86,51.54 14.84,16.04 34.45,25.8 58.39,31.78 133.26,33.22 266.27,67.49 399.04,102.65 74.44,19.71 233.51,62.96 354.72,98.51 74.08,21.73 105.68,38.17 151.83,49.44 15.59,3.81 25.53,1.62 38.34,-9.85 86.3,-77.29 98.8,-186.7 128.44,-288.72 11.63,-40.04 34.98,-122.76 34.98,-122.76 0,0 88.31,166.08 173.45,309.87 62.08,104.88 125.54,195.36 136.72,213.43 2.69,4.36 10.81,8.56 15.69,7.86 21.32,-3.09 41.23,-0.34 61,8.05 8.17,3.47 28.23,3.96 30.38,-6.03 1.69,-7.92 5.62,-18.75 -22.66,-18.62 -77.59,7.75 -99.18,-54.85 -128.1,-104.43 -43.77,-75.01 -222.4,-370.62 -242.7,-454.29 -10.08,-41.56 13.22,-82.52 27.11,-121.43 39.13,-109.61 66.7,-221.87 88.74,-335.86 5.7,-29.49 15.79,-58.22 25.06,-86.92 6.21,-19.24 8.34,-35.23 -14.48,-45.27 -113.38,-49.9 -224.6,-104.92 -342.71,-143.53 -22.51,-7.37 -37.52,-12.28 -68.3,-22.34"
         id="path4" />
      <path
         d="m 2163.69,1910.25 c -0.01,0.04 -3.86,10.61 -8.06,21.04 -2.92,7.29 -6.65,15.79 3.23,19.19 8.17,2.83 14.08,-3.57 16.83,-11.5 5.79,-16.62 10.72,-33.57 17.26,-49.89 7.18,-17.92 -1.27,-24.32 -17.04,-29.13 -133.87,-40.83 -271.26,-67.18 -407.25,-99.25 -47.07,-11.09 -82.76,-23.5 -129.56,-35.72 -10.66,-2.78 -27.99,-1.47 -35.36,17.68 -9.93,25.83 -22.1,55.98 -11.39,69.43 3.88,4.86 14.49,4.04 19.05,-4.85 8.66,-16.88 8.47,-46.8 25.82,-48.75 27.56,-3.09 56.9,6.2 85.05,12.29 79.92,17.3 159.95,34.36 239.33,53.96 63.93,15.79 126.98,35.11 190.41,52.91 10.84,3.04 15.48,10.23 11.68,32.59"
         id="path6" />
      <path
         d="m 1642.78,1948.93 c 9.58,0.74 14.9,-8.89 15.4,-19.71 0.56,-12.3 -6.67,-14.65 -16.34,-15.32 -12.9,-0.89 -16.29,8.38 -17.05,17.89 -1.03,12.92 8.42,16.41 17.99,17.14"
         id="path8" />
      <path
         d="m 1961.77,2040.11 c 11.77,0.9 17.99,-8.28 17.45,-20.06 -0.37,-8.4 -5.19,-16.21 -13.41,-15.62 -10.07,0.73 -16.82,9.14 -17.19,19.34 -0.29,7.84 1.38,15.44 13.15,16.34"
         id="path10" />
    </g>
  </g>
</svg>
