<?xml version="1.0" encoding="UTF-8" standalone="no"?>
<svg
   height="332"
   viewBox="0 0 332 332.00001"
   width="332"
   version="1.1"
   id="svg20"
   sodipodi:docname="questions.svg"
   inkscape:version="1.1.2 (0a00cf5339, 2022-02-04)"
   xmlns:inkscape="http://www.inkscape.org/namespaces/inkscape"
   xmlns:sodipodi="http://sodipodi.sourceforge.net/DTD/sodipodi-0.dtd"
   xmlns="http://www.w3.org/2000/svg"
   xmlns:svg="http://www.w3.org/2000/svg">
  <defs
     id="defs24" />
  <sodipodi:namedview
     id="namedview22"
     pagecolor="#ffffff"
     bordercolor="#666666"
     borderopacity="1.0"
     inkscape:pageshadow="2"
     inkscape:pageopacity="0.0"
     inkscape:pagecheckerboard="0"
     showgrid="false"
     fit-margin-top="2"
     fit-margin-left="2"
     fit-margin-right="2"
     fit-margin-bottom="2"
     inkscape:zoom="1"
     inkscape:cx="-9"
     inkscape:cy="219.5"
     inkscape:window-width="1920"
     inkscape:window-height="1019"
     inkscape:window-x="1920"
     inkscape:window-y="30"
     inkscape:window-maximized="1"
     inkscape:current-layer="svg20" />
  <g
     transform="matrix(0.13333333,0,0,-0.13333333,-89.881227,353.06042)"
     id="g18">
    <path
       d="m 1271.87,1596.79 c 77.95,-267.24 155.91,-534.46 233.88,-801.7 3.52,-12.09 7.65,-25.059 18.23,-32.692 12.98,-9.347 31.15,-7.617 47.33,-5.449 349.96,47.071 699.92,94.129 1049.88,141.199 14.22,1.911 29.45,4.27 39.79,13.672 18.38,16.75 11.76,45.289 4.02,68.231 -102.07,302.239 -169.57,614.779 -200.97,930.509 -7.61,76.54 -31.74,173.38 -112.58,184.74 -18.08,2.54 -36.48,-0.12 -54.54,-2.81 -260.31,-38.9 -519.01,-87.34 -775.31,-145.17 -217.21,-49 -317.9,-116.85 -249.73,-350.53"
       fill="#d7e61d"
       id="path2" />
    <g
       fill="#231f20"
       id="g16">
      <path
         d="m 1263.25,1387.32 c -21.65,-44.04 -38.38,-78.07 -57.42,-116.79 30.34,2.11 78.57,18.95 78.57,18.95 0,0 -13.06,58.27 -21.15,97.84 z m 1327.88,-227.29 c 72.48,149.93 8.15,468.4 -102.15,526.91 33.7,-173.78 67.3,-347.13 102.15,-526.91 z m -1362.94,655.2 c 101.31,26.52 274.91,62.24 464.3,103.44 285.37,62.08 587.88,124.92 657.91,140.56 -11.84,11.7 -47.73,25.8 -65.98,22.44 -87.45,-16.09 -137.86,-28.41 -229.58,-47 -63.16,-8.38 -239.21,-44.78 -386.86,-79.54 -151.67,-35.71 -314,-69.7 -331.42,-72.58 -35.3,-5.83 -34.64,-8.92 -52.55,-18.06 -20.46,-10.44 -39.63,-25.91 -55.82,-49.26 z m 1349.28,-727.81 c -11.64,-4.75 -37.42,-32.2 -56.32,-17.29 -6.88,5.44 -9,12.79 -6.03,20.33 4.17,10.61 53.44,44.08 53.44,44.08 0,0 -44.26,181.41 -55.6,266.69 -18.73,140.95 -64.11,276.37 -80.16,417.81 -7.51,66.21 -27,130.37 -52.48,192.69 -7.4,18.11 -13.01,26.14 -31.82,21.9 -78.52,-17.7 -157.43,-33.87 -235.48,-53.41 -45.62,-11.42 -232.14,-42.49 -410.15,-80.38 -117.8,-25.09 -233.25,-58.42 -296.74,-72.18 -54.62,-11.84 -116.41,-25.17 -171.31,-34.92 -29.75,-5.29 -19,-24.12 -12.03,-43.85 17.59,-49.75 24.42,-101.65 31.96,-153.47 9.22,-63.4 26.14,-125.36 32.82,-189.39 3.8,-36.45 15.73,-72.04 23.61,-106.32 91.42,25.83 314.46,87.82 317.42,122.39 1.35,15.7 -14.93,42.26 10.37,44.01 28.4,1.96 21.01,-25.4 21.01,-42.75 0,-17.36 1.78,-36.43 -20,-42.61 -49.36,-13.99 -95.76,-35.51 -143.9,-52.36 -50.99,-17.83 -103.48,-31.37 -155.31,-46.8 -15.85,-4.71 -25.38,-8.22 -25.38,-8.22 0,0 32.24,-186.07 50.77,-266.24 21.98,-95.118 50.52,-188.708 73.79,-283.548 10.82,-44.133 25.95,-55.102 70.21,-42.672 35.69,10.02 577.09,119.988 651.12,129.66 79.82,10.418 377.65,53.461 445.39,72.891 12.84,3.68 19.11,9.609 15.96,22.5 -14.5,59.16 -29.39,118.219 -45.16,181.459 z M 2363.94,244.328 c -17.25,-7.207 -91.21,47.543 -117.39,87.332 -15.26,23.199 -2.02,64.66 -3.01,97.852 -2.79,92.129 -6.52,184.238 -9.37,276.367 -0.68,22 0.53,44.062 1.04,66.101 0.34,13.961 -3.84,20.231 -20.07,18.719 -91.34,-8.551 -179.78,-32.187 -269.28,-50.289 -14.42,-2.922 -14.71,-14.711 -14.62,-25.172 0.81,-91.508 2.85,-183 3.01,-274.5 0.11,-56.136 4.88,-130.226 4.66,-168.226 1.91,-12.532 -4.13,-23.543 -13.04,-32.371 -21.92,-21.731 -43.87,-43.43 -66.24,-64.7 -5.55,-5.281 -12.8,-13.793 -20.71,-4.453 -7.46,8.801 -8.78,19.934 0.85,28.684 10.21,9.297 20.77,18.488 32.28,26.027 60.52,39.742 33.59,223.781 31.99,303.86 -1.32,65.5 -5.72,156.812 -7.87,180.429 -2.15,23.621 -24.17,21.742 -34.36,19.332 -103.57,-24.461 -186.81,-32.691 -289.26,-62.691 -31.92,-9.34 -64.79,-15.828 -97.57,-21.68 -28.42,-5.078 -45.06,4.473 -53.2,36.539 -24.81,97.774 -56.12,193.903 -75.7,293.024 -16.98,85.948 -56.72,286.468 -56.72,286.468 0,0 -75.13,-19.65 -100.13,-25.83 -6.99,-1.73 -15.85,-4.28 -20.83,3.64 -4.66,7.41 -3.72,15.34 1.75,22.98 36.76,51.3 58.96,109.99 80.62,168.29 12.93,34.78 -53.13,296.98 -63.05,345.32 -9.92,48.34 6.35,44.49 26.11,63.77 19.75,19.28 40.54,35.76 64.06,46.03 34.59,15.11 72.93,21.69 110.88,30.52 104.58,24.35 205.82,51.22 310.88,72.88 172.62,35.6 347.78,71.84 521.17,103.72 17.83,3.28 35.32,8.4 52.98,12.63 56.11,13.46 117.35,-26.03 135.72,-80.88 29.77,-88.87 64.96,-271.86 64.96,-271.86 0,0 48.02,-32.7 65.57,-54.9 63.69,-80.57 98.46,-169.03 108.88,-276.18 6.37,-65.48 6.51,-148.36 -6,-217.15 -9.79,-53.86 -34.71,-96.68 -34.71,-96.68 0,0 22.27,-100.17 34.41,-146.542 24.97,-95.379 25.82,-95.578 -70.76,-114.308 -93.53,-18.16 -189.32,-20.711 -282.67,-41.192 -24.38,-12.308 -19.85,-45.136 -20.41,-38.027 -6.02,-79.223 1.08,-377.231 1.08,-400.859 0,-23.622 58.82,-66.493 79.72,-78.571 18.93,-10.922 31.6,-36.25 14.35,-43.453"
         id="path4" />
      <path
         d="m 1877.35,2404.33 c 25.94,4.58 51.84,9.55 77.89,13.51 7.38,1.12 18.08,3.88 18.72,-9.07 0.53,-10.92 -2.92,-19.95 -16.21,-21.36 -30.61,-3.24 -61.01,-6.95 -90.49,-17.15 -14.91,-5.15 -18.47,7.87 -18.92,18.95 -0.92,22.8 -1.65,45.37 -10.82,66.89 -3.55,8.33 0.4,14.63 9.21,17.54 20.88,6.9 41.57,14.48 62.68,20.57 10.85,3.13 16.34,7.68 14.53,19.77 -3.45,23.06 -6.09,46.25 -9.15,69.37 -1.84,13.86 -8.99,19.95 -23.43,16.6 -7.93,-1.83 -16.38,-4.1 -24.22,-3.11 -13.36,1.68 -35.05,-18.57 -38.78,7.62 -3.77,26.49 22.98,19.43 37.52,22.31 61.09,12.09 61.7,11.62 74.77,-49.84 5.38,-25.28 9.37,-51 11.74,-76.72 2.61,-28.34 -22.05,-33.51 -40.32,-35.47 -38.72,-4.15 -45.58,-24.16 -34.72,-60.41"
         id="path6" />
      <path
         d="m 1908.7,2282.28 c -0.32,11.86 6.85,20.35 18.79,20.37 12.31,0.02 15.73,-11.38 16.17,-21.76 0.44,-10.44 -3.73,-18.93 -16.29,-18.09 -11.14,0.73 -19.61,5.04 -18.67,19.48"
         id="path8" />
      <path
         d="m 1803.76,1568.58 c -1.2,-8.76 -4.16,-19.08 -16.44,-22.68 -104.45,-30.61 -203.8,-76.53 -309.57,-103.1 -9.51,-2.39 -22.99,-12.9 -28.47,0.59 -6.32,15.56 12.01,20.31 21.32,23.5 57.12,19.53 115.15,36.38 172.37,55.62 39.9,13.41 79.01,29.19 118.44,43.99 13.08,4.91 11.2,13.47 7.33,24.47 -4.55,12.94 -14.11,32.09 6.34,36.39 17.04,3.57 20.77,-16.29 24.07,-30.35 2.02,-8.57 2.87,-17.41 4.61,-28.43"
         id="path10" />
      <path
         d="m 1791.93,1702.71 c -7.35,1.25 -12.79,5.07 -12.05,13.48 0.75,8.67 4.69,16.39 14.44,16.65 8.8,0.23 13.69,-5.85 13.34,-14.65 -0.38,-9.42 -5.72,-14.81 -15.73,-15.48"
         id="path12" />
      <path
         d="m 1458.02,1626.55 c -9.67,0.91 -15.94,4.25 -15.67,13.75 0.24,8.52 4.94,14.57 13.47,15.13 7.19,0.47 14.64,-3.15 14.13,-11.22 -0.48,-7.57 -3.46,-15.79 -11.93,-17.66"
         id="path14" />
    </g>
  </g>
</svg>
